<?xml version="1.0"?>
<svg xmlns="http://www.w3.org/2000/svg" id="icons" enable-background="new 0 0 64 64" height="512px" viewBox="0 0 64 64" width="512px" class=""><g><g><g><path d="m6 50c-.183 0-.365-.05-.525-.149-.295-.182-.475-.504-.475-.851v-3h-4c-.553 0-1-.447-1-1v-32c0-.553.447-1 1-1h46c.553 0 1 .447 1 1v16.015c0 .553-.447 1-1 1s-1-.447-1-1v-15.015h-44v30h4c.553 0 1 .447 1 1v2.382l6.552-3.276c.138-.07.292-.106.447-.106h17.017c.553 0 1 .447 1 1s-.447 1-1 1h-16.78l-7.788 3.895c-.142.07-.295.105-.448.105z" data-original="#000000" class="" data-old_color="#000000" fill="#125833"/></g><g><path d="m59 25c-.153 0-.306-.035-.447-.105l-5.788-2.895h-5.765c-.553 0-1-.447-1-1s.447-1 1-1h6.001c.155 0 .309.036.447.105l4.552 2.277v-1.382c0-.553.447-1 1-1h3v-16h-44v9c0 .553-.447 1-1 1s-1-.447-1-1v-10c0-.553.447-1 1-1h46c.553 0 1 .447 1 1v18c0 .553-.447 1-1 1h-3v2c0 .347-.18.669-.475.851-.16.099-.342.149-.525.149z" data-original="#000000" class="" data-old_color="#000000" fill="#125833"/></g><g><g><path d="m27.016 20h-20c-.553 0-1-.447-1-1s.447-1 1-1h20c.553 0 1 .447 1 1s-.448 1-1 1z" data-original="#000000" class="" data-old_color="#000000" fill="#125833"/></g><g><path d="m15.016 24h-8c-.553 0-1-.447-1-1s.447-1 1-1h8c.553 0 1 .447 1 1s-.448 1-1 1z" data-original="#000000" class="" data-old_color="#000000" fill="#125833"/></g><g><path d="m41 24h-21.984c-.553 0-1-.447-1-1s.447-1 1-1h21.984c.553 0 1 .447 1 1s-.447 1-1 1z" data-original="#000000" class="" data-old_color="#000000" fill="#125833"/></g><g><path d="m18.016 32h-11c-.553 0-1-.447-1-1s.447-1 1-1h11c.553 0 1 .447 1 1s-.448 1-1 1z" data-original="#000000" class="" data-old_color="#000000" fill="#125833"/></g><g><path d="m39.287 32h-17.271c-.553 0-1-.447-1-1s.447-1 1-1h17.271c.553 0 1 .447 1 1s-.447 1-1 1z" data-original="#000000" class="" data-old_color="#000000" fill="#125833"/></g><g><path d="m30.012 28h-22.996c-.553 0-1-.447-1-1s.447-1 1-1h22.996c.553 0 1 .447 1 1s-.448 1-1 1z" data-original="#000000" class="" data-old_color="#000000" fill="#125833"/></g><g><path d="m41 28h-6.988c-.553 0-1-.447-1-1s.447-1 1-1h6.988c.553 0 1 .447 1 1s-.447 1-1 1z" data-original="#000000" class="" data-old_color="#000000" fill="#125833"/></g><g><path d="m41 20h-9.984c-.553 0-1-.447-1-1s.447-1 1-1h9.984c.553 0 1 .447 1 1s-.447 1-1 1z" data-original="#000000" class="" data-old_color="#000000" fill="#125833"/></g><g><path d="m27.016 36h-20c-.553 0-1-.447-1-1s.447-1 1-1h20c.553 0 1 .447 1 1s-.448 1-1 1z" data-original="#000000" class="" data-old_color="#000000" fill="#125833"/></g><g><path d="m15.016 40h-8c-.553 0-1-.447-1-1s.447-1 1-1h8c.553 0 1 .447 1 1s-.448 1-1 1z" data-original="#000000" class="" data-old_color="#000000" fill="#125833"/></g><g><path d="m32.184 40h-13.168c-.553 0-1-.447-1-1s.447-1 1-1h13.168c.553 0 1 .447 1 1s-.448 1-1 1z" data-original="#000000" class="" data-old_color="#000000" fill="#125833"/></g><g><path d="m34.534 36h-3.519c-.553 0-1-.447-1-1s.447-1 1-1h3.519c.553 0 1 .447 1 1s-.447 1-1 1z" data-original="#000000" class="" data-old_color="#000000" fill="#125833"/></g></g><g><path d="m47.008 62c-9.369 0-16.992-7.623-16.992-16.992s7.623-16.992 16.992-16.992 16.992 7.623 16.992 16.992-7.623 16.992-16.992 16.992zm0-31.984c-8.267 0-14.992 6.726-14.992 14.992s6.725 14.992 14.992 14.992 14.992-6.726 14.992-14.992-6.726-14.992-14.992-14.992z" data-original="#000000" class="" data-old_color="#000000" fill="#125833"/></g><g><g><g><path d="m46.999 55.014c-4.959 0-8.993-4.034-8.993-8.992 0-.553.447-1 1-1s1 .447 1 1c0 3.855 3.137 6.992 6.993 6.992s6.993-3.137 6.993-6.992c0-.553.447-1 1-1s1 .447 1 1c0 4.957-4.034 8.992-8.993 8.992z" data-original="#000000" class="" data-old_color="#000000" fill="#125833"/></g><g><path d="m54.998 47.022c-.553 0-1-.447-1-1 0-4.961-4.035-8.997-8.996-8.997-.553 0-1-.447-1-1s.447-1 1-1c6.063 0 10.996 4.934 10.996 10.997 0 .553-.447 1-1 1z" data-original="#000000" class="" data-old_color="#000000" fill="#125833"/></g><g><path d="m39.001 43.027c-.553 0-1-.447-1-1s.447-1 1-1c2.757 0 5-2.243 5-5.001 0-.553.447-1 1-1s1 .447 1 1c0 3.861-3.141 7.001-7 7.001z" data-original="#000000" class="" data-old_color="#000000" fill="#125833"/></g><g><path d="m39.001 47.021c-.553 0-1-.447-1-1v-3.994c0-.553.447-1 1-1s1 .447 1 1v3.994c0 .553-.447 1-1 1z" data-original="#000000" class="" data-old_color="#000000" fill="#125833"/></g></g><g><path d="m46.999 52.014c-3.288 0-5.966-2.661-5.993-5.942-.003-.035-.005-.071-.005-.099v-1.471c0-.423.267-.801.665-.942 2.147-.763 3.874-2.405 4.737-4.508.203-.493.757-.74 1.259-.563 3.172 1.123 5.315 4.133 5.334 7.488 0 .028-.001.062-.004.095-.027 3.281-2.705 5.942-5.993 5.942zm-3.998-6.089c.003.034.005.069.005.097 0 2.201 1.791 3.992 3.993 3.992s3.993-1.791 3.993-3.992c0-.024.001-.053.004-.081-.028-2.192-1.271-4.185-3.18-5.204-1.059 1.973-2.756 3.543-4.815 4.444z" data-original="#000000" class="" data-old_color="#000000" fill="#125833"/></g></g></g></g> </svg>
