<svg xmlns="http://www.w3.org/2000/svg" viewBox="0 0 512 512"><defs><style>.cls-1{fill:#fff;}.cls-2{opacity:0.1;}.cls-3{fill:#b1131a;}</style></defs><title>Asset 3</title><g id="Layer_2" data-name="Layer 2"><g id="Capa_1" data-name="Capa 1"><rect class="cls-1" width="512" height="512"/><g class="cls-2"><circle class="cls-3" cx="214.79" cy="203.93" r="23"/><path class="cls-3" d="M403.57,288.58A70.77,70.77,0,0,0,364,269.74V152.83a46,46,0,0,0-13.1-32,44.66,44.66,0,0,0-31.94-13.09H133.66a46,46,0,0,0-31.94,13.09,44.64,44.64,0,0,0-13.1,32V343.52a46,46,0,0,0,13.1,31.94,44.6,44.6,0,0,0,31.94,13.1h179.2c11.82,9.58,26.51,15.65,42.8,15.65a67.75,67.75,0,0,0,47.91-115.63Zm-298-135.75a26.75,26.75,0,0,1,8.31-19.49,28,28,0,0,1,19.8-8.3H318.93A28.36,28.36,0,0,1,347,153.15v99.66l-47.28-47.28a8.59,8.59,0,0,0-12.14,0l-71.23,71.55-48.23-48.55a8.59,8.59,0,0,0-12.14,0l-50.47,51.11Zm27.79,219.44v-.64a28,28,0,0,1-19.8-8.3,29.17,29.17,0,0,1-8-19.81V303.91l56.54-56.85,48.23,48.23a8.89,8.89,0,0,0,12.14,0l71.23-71.55,46.64,46.95-2.88,1a30,30,0,0,0-4.15,1.28c-1.28.32-2.55,1-3.83,1.28a9.84,9.84,0,0,0-2.56,1.27,29.51,29.51,0,0,0-3.19,1.6L318.93,280c-1,.64-1.6,1-2.56,1.59-.64.32-1,.64-1.6,1a38.44,38.44,0,0,0-7.66,6.71,67.58,67.58,0,0,0-19.81,47.91,70.15,70.15,0,0,0,1.6,14.06c.32,1.28.64,2.23,1,3.51,1,3.2,1.92,6.39,3.19,9.58v.32a58.57,58.57,0,0,0,4.16,7.67Zm257.78,0a50.55,50.55,0,0,1-70.6.64c-1.27-1.28-2.55-2.88-3.83-4.15-1-1-1.92-2.24-2.87-3.2a30,30,0,0,1-3.2-5.43c-.64-1.28-1.28-2.23-1.92-3.51a27.79,27.79,0,0,1-1.59-5.43c-.32-1.28-1-2.88-1.28-4.15a52.86,52.86,0,0,1-1-10.23A51.24,51.24,0,0,1,319.57,301a49.38,49.38,0,0,1,35.77-14.69A51.26,51.26,0,0,1,391.12,301a49.93,49.93,0,0,1,14.69,35.77A51.1,51.1,0,0,1,391.12,372.27Z"/><path class="cls-3" d="M361.41,302.32a11.17,11.17,0,0,0-2.88-1.92,9.22,9.22,0,0,0-2.87-.64H355a9.22,9.22,0,0,0-2.87.64,7.56,7.56,0,0,0-2.88,1.92l-19.8,19.8a8.58,8.58,0,0,0,12.14,12.14l5.11-5.11v35.13a8.63,8.63,0,1,0,17.25,0V329.15l5.11,5.11a8.58,8.58,0,1,0,12.13-12.14Z"/></g></g></g></svg>